<svg width="512" height="512" viewBox="0 0 512 512" fill="none" xmlns="http://www.w3.org/2000/svg">
<rect width="512" height="512" fill="#767E6C"/>
<path d="M175 395C142.075 395 115.258 368.182 115.258 335.258C115.258 324.504 106.496 315.742 95.7421 315.742C62.8176 315.742 36 288.924 36 256C36 223.075 62.8176 196.258 95.7421 196.258C106.496 196.258 115.258 187.496 115.258 176.742C115.258 143.818 142.075 117 175 117C207.924 117 234.742 143.818 234.742 176.742C234.742 209.667 207.924 236.484 175 236.484C164.246 236.484 155.484 245.246 155.484 256C155.484 266.754 164.246 275.516 175 275.516C207.924 275.516 234.742 302.333 234.742 335.258C234.742 368.182 207.924 395 175 395Z" fill="#B2C598"/>
<path d="M393.305 335.258C393.305 324.504 402.067 315.742 412.82 315.742C445.745 315.742 472.562 288.924 472.562 256C472.562 223.075 445.745 196.258 412.82 196.258C402.067 196.258 393.305 187.496 393.305 176.742C393.305 143.818 366.487 117 333.563 117C300.638 117 273.82 143.818 273.82 176.742C273.82 209.667 300.638 236.484 333.563 236.484C344.316 236.484 353.078 245.246 353.078 256C353.078 266.754 344.316 275.516 333.563 275.516C300.638 275.516 273.82 302.333 273.82 335.258C273.82 368.182 300.638 395 333.563 395C366.487 395 393.305 368.182 393.305 335.258Z" fill="#B2C598"/>
</svg>
